<svg width="313" height="313" viewBox="0 0 313 313" fill="none" xmlns="http://www.w3.org/2000/svg">
<mask id="path-1-inside-1_59_79" fill="white">
<path d="M313 156.5C313 242.933 242.933 313 156.5 313C70.0674 313 0 242.933 0 156.5C0 70.0674 70.0674 0 156.5 0C242.933 0 313 70.0674 313 156.5ZM126.296 156.5C126.296 173.181 139.819 186.704 156.5 186.704C173.181 186.704 186.704 173.181 186.704 156.5C186.704 139.819 173.181 126.296 156.5 126.296C139.819 126.296 126.296 139.819 126.296 156.5Z"/>
</mask>
<path d="M313 156.5C313 242.933 242.933 313 156.5 313C70.0674 313 0 242.933 0 156.5C0 70.0674 70.0674 0 156.5 0C242.933 0 313 70.0674 313 156.5ZM126.296 156.5C126.296 173.181 139.819 186.704 156.5 186.704C173.181 186.704 186.704 173.181 186.704 156.5C186.704 139.819 173.181 126.296 156.5 126.296C139.819 126.296 126.296 139.819 126.296 156.5Z" fill="url(#paint0_linear_59_79)" stroke="url(#paint1_linear_59_79)" stroke-width="2" mask="url(#path-1-inside-1_59_79)"/>
<g filter="url(#filter0_d_59_79)">
<mask id="path-2-inside-2_59_79" fill="white">
<path d="M221 156.5C221 192.122 192.122 221 156.5 221C120.878 221 92 192.122 92 156.5C92 120.878 120.878 92 156.5 92C192.122 92 221 120.878 221 156.5ZM110.834 156.5C110.834 181.721 131.279 202.166 156.5 202.166C181.721 202.166 202.166 181.721 202.166 156.5C202.166 131.279 181.721 110.834 156.5 110.834C131.279 110.834 110.834 131.279 110.834 156.5Z"/>
</mask>
<path d="M221 156.5C221 192.122 192.122 221 156.5 221C120.878 221 92 192.122 92 156.5C92 120.878 120.878 92 156.5 92C192.122 92 221 120.878 221 156.5ZM110.834 156.5C110.834 181.721 131.279 202.166 156.5 202.166C181.721 202.166 202.166 181.721 202.166 156.5C202.166 131.279 181.721 110.834 156.5 110.834C131.279 110.834 110.834 131.279 110.834 156.5Z" stroke="black" stroke-opacity="0.28" stroke-width="2" shape-rendering="crispEdges" mask="url(#path-2-inside-2_59_79)"/>
</g>
<g filter="url(#filter1_d_59_79)">
<mask id="path-3-inside-3_59_79" fill="white">
<path d="M241 157C241 203.392 203.392 241 157 241C110.608 241 73 203.392 73 157C73 110.608 110.608 73 157 73C203.392 73 241 110.608 241 157ZM77.032 157C77.032 201.165 112.835 236.968 157 236.968C201.165 236.968 236.968 201.165 236.968 157C236.968 112.835 201.165 77.032 157 77.032C112.835 77.032 77.032 112.835 77.032 157Z"/>
</mask>
<path d="M241 157C241 203.392 203.392 241 157 241C110.608 241 73 203.392 73 157C73 110.608 110.608 73 157 73C203.392 73 241 110.608 241 157ZM77.032 157C77.032 201.165 112.835 236.968 157 236.968C201.165 236.968 236.968 201.165 236.968 157C236.968 112.835 201.165 77.032 157 77.032C112.835 77.032 77.032 112.835 77.032 157Z" stroke="black" stroke-opacity="0.3" stroke-width="2" shape-rendering="crispEdges" mask="url(#path-3-inside-3_59_79)"/>
</g>
<g opacity="0.24">
<path d="M174.46 63.8575C173.977 63.7751 173.603 63.5456 173.336 63.1689C171.423 62.8975 170.048 62.2213 169.212 61.1403C168.402 60.0639 168.012 58.7969 168.04 57.3393C167.891 57.5623 167.705 57.765 167.481 57.9474C167.283 58.1345 167.037 58.2855 166.741 58.4006C166.744 58.7047 166.605 58.9568 166.322 59.1569C166.035 59.3838 165.69 59.463 165.288 59.3943C165.074 59.3577 164.853 59.2786 164.625 59.1569C164.424 59.0399 164.164 58.7884 163.843 58.4026C163.523 58.0168 163.357 57.6159 163.345 57.2C163.443 57.2719 163.563 57.3752 163.706 57.5099C163.871 57.6761 164.06 57.7774 164.275 57.814L164.355 57.8278C164.489 57.8507 164.644 57.8356 164.818 57.7826C164.993 57.7297 165.143 57.6587 165.269 57.5698C165.358 57.5299 165.461 57.4923 165.578 57.457C165.721 57.4262 165.846 57.42 165.953 57.4383C166.114 57.4658 166.277 57.5626 166.442 57.7287C166.54 57.8006 166.629 57.9262 166.709 58.1054C167.251 57.8392 167.704 57.3648 168.069 56.682C168.102 56.3289 168.15 55.9646 168.214 55.5893C168.301 55.2453 168.403 54.8902 168.52 54.524C166.086 53.9152 164.417 52.9405 163.515 51.5999C162.612 50.2593 162.291 48.8248 162.552 47.2965C162.868 45.4465 163.596 43.929 164.737 42.744C165.882 41.5323 167.254 40.6076 168.853 39.97C170.483 39.3101 172.184 38.8831 173.956 38.6889C175.759 38.4724 177.465 38.4188 179.074 38.528C179.03 38.2997 178.987 38.0715 178.943 37.8433C178.93 37.5928 178.929 37.358 178.939 37.139C177.545 36.9009 176.233 36.5805 175.005 36.1777C173.777 35.7748 172.768 35.2991 171.979 34.7504C171.827 34.6693 171.66 34.5994 171.477 34.5405C171.321 34.4862 171.149 34.4431 170.961 34.411C170.451 34.3241 169.997 34.3983 169.598 34.6337C169.959 34.9437 170.094 35.3668 170.003 35.903C169.975 36.0639 169.903 36.2447 169.786 36.4455C169.628 36.7221 169.442 36.9248 169.227 37.0537C169.038 37.1871 168.866 37.3094 168.709 37.4205C168.583 37.5095 168.451 37.6386 168.311 37.808C168.172 37.9774 168.086 38.1559 168.054 38.3436C168.018 38.5581 168.08 38.7618 168.24 38.9547C168.177 38.9992 168.092 39.0123 167.985 38.9939C167.583 38.9253 167.307 38.6022 167.157 38.0248C167.034 37.4519 167.02 36.884 167.117 36.3209C167.24 35.597 167.551 35.0706 168.048 34.7416C168.573 34.4173 169.014 34.3407 169.371 34.5121C169.757 34.1916 170.184 34.0301 170.654 34.0275C170.739 34.0144 170.822 34.0147 170.902 34.0285C170.982 34.0422 171.063 34.0559 171.143 34.0697C170.096 33.0907 169.376 32.1399 168.981 31.2171C168.592 30.2676 168.461 29.4175 168.589 28.6667C168.758 27.6747 169.273 26.921 170.134 26.4057C170.999 25.8636 172.008 25.6909 173.161 25.8877C173.59 25.961 174.037 26.0924 174.501 26.2821C174.965 26.4717 175.432 26.7307 175.9 27.059C176.096 27.2028 176.276 27.3578 176.441 27.5239C176.611 27.6632 176.764 27.8136 176.902 27.9752C177.215 28.0837 177.626 28.0987 178.136 28.0203C178.646 27.9418 178.929 27.7417 178.984 27.4199L178.998 27.3395C179.03 27.1518 179.102 27.0537 179.213 27.0452C179.357 27.0145 179.459 27.0596 179.521 27.1806C179.677 27.4003 179.732 27.6442 179.686 27.9124C179.618 28.3145 179.306 28.6062 178.75 28.7874C178.576 28.8403 178.368 28.8462 178.127 28.805C177.832 28.7547 177.584 28.671 177.383 28.5539C177.761 29.0875 178.069 29.7058 178.308 30.4088C178.791 30.4912 179.08 30.7338 179.177 31.1367C179.301 31.5441 179.317 32.0159 179.225 32.5522C179.143 33.0348 178.888 33.557 178.461 34.1187C178.039 34.6536 177.619 34.927 177.203 34.9388C177.177 34.9342 177.134 34.9407 177.076 34.9584C177.049 34.9538 177.022 34.9492 176.996 34.9446C176.835 34.9172 176.737 34.8452 176.701 34.7288C177.015 34.6719 177.201 34.4692 177.26 34.1207C177.306 33.8525 177.272 33.5707 177.156 33.2751C177.081 33.0691 176.995 32.8474 176.897 32.61C176.831 32.3504 176.83 32.0329 176.894 31.6576C176.959 31.2822 177.118 30.9922 177.374 30.7875C177.63 30.5828 177.856 30.4696 178.053 30.4481C177.85 29.8615 177.505 29.2922 177.02 28.7403C176.566 28.1661 176.081 27.6969 175.563 27.3326C175.242 27.1123 174.912 26.9455 174.573 26.8324C174.265 26.697 173.963 26.6042 173.668 26.5538C172.73 26.3936 171.902 26.5558 171.184 27.0403C170.467 27.5249 170.035 28.1962 169.889 29.0542C169.774 29.7245 169.87 30.4582 170.175 31.2554C170.507 32.0571 171.115 32.8644 171.997 33.6773C172.834 34.4274 173.856 35.0709 175.061 35.6078C176.271 36.1178 177.571 36.5053 178.96 36.7701C179.012 36.1443 179.159 35.6038 179.403 35.1487C180.025 33.7649 180.895 32.713 182.011 31.993C183.132 31.2462 184.332 30.7613 185.612 30.5383C186.892 30.3153 188.081 30.2976 189.181 30.4853C190.36 30.6867 191.302 31.0683 192.007 31.6301C192.711 32.1918 192.997 32.8614 192.864 33.639C192.763 34.2289 192.446 34.7955 191.912 35.3389C191.404 35.887 190.709 36.3202 189.827 36.6387C188.56 37.1121 187.063 37.3947 185.336 37.4862C183.61 37.5778 181.882 37.5173 180.152 37.3047C180.084 37.7069 180.077 38.1474 180.134 38.6261L180.174 38.6329C180.495 38.6879 180.92 38.7879 181.447 38.9331C182.001 39.0828 182.519 39.2816 183.001 39.5295C183.487 39.7505 183.813 40.0268 183.977 40.3584C184.057 40.5376 184.087 40.6808 184.069 40.788C184.028 41.0293 183.841 41.232 183.51 41.3962C183.21 41.5381 182.792 41.5633 182.255 41.4717C181.88 41.4076 181.527 41.2922 181.197 41.1255C180.764 40.9136 180.396 40.6438 180.093 40.3162C179.791 39.9886 179.535 39.6276 179.326 39.2333C177.887 39.0979 176.398 39.1747 174.858 39.4638C173.319 39.7528 171.866 40.2636 170.499 40.996C169.163 41.7062 168.011 42.6407 167.04 43.7995C166.096 44.9629 165.49 46.3355 165.22 47.9174C165.009 49.1508 165.168 50.323 165.695 51.4341C166.254 52.5229 167.26 53.343 168.711 53.8942C168.968 53.1932 169.282 52.4879 169.651 51.7784C170.021 51.0688 170.442 50.3819 170.914 49.7174C170.882 49.7397 170.838 49.7596 170.779 49.7773C170.748 49.7995 170.714 49.8351 170.678 49.8842C170.284 50.0928 169.779 50.1445 169.162 50.0392C168.706 49.9614 168.405 49.7858 168.258 49.5124C168.117 49.2123 168.068 48.9281 168.114 48.66C168.174 48.3114 168.3 48.0571 168.493 47.8968C168.587 47.8301 168.661 47.8014 168.715 47.8105C168.795 47.8243 168.81 47.9786 168.76 48.2735C168.714 48.5416 168.89 48.8062 169.286 49.0671C169.688 49.3012 170.076 49.4503 170.452 49.5144C170.639 49.5464 170.776 49.5559 170.861 49.5428C170.919 49.5252 170.962 49.5186 170.988 49.5232C171.015 49.5278 171.044 49.519 171.076 49.4967C172.227 47.9272 173.591 46.5598 175.17 45.3945C176.749 44.2291 178.406 43.4911 180.142 43.1805C181.055 43.0052 181.914 42.9863 182.718 43.1236C184.059 43.3525 185.134 43.9224 185.945 44.8334C186.759 45.7175 187.059 46.7897 186.844 48.0498C186.743 48.6397 186.484 49.2714 186.065 49.945C185.647 50.6185 185.063 51.2915 184.313 51.9637C183.111 53.0277 181.679 53.818 180.018 54.3346C178.388 54.829 176.699 55.1063 174.95 55.1665C173.202 55.2266 171.55 55.124 169.995 54.8585L169.432 54.7624C169.255 55.3117 169.119 55.8679 169.023 56.4309C168.757 57.986 168.935 59.3685 169.556 60.5783C170.173 61.8149 171.395 62.5754 173.223 62.8599C173.148 62.6539 173.133 62.4169 173.179 62.1487C173.257 61.6929 173.493 61.278 173.888 60.9039C174.305 60.5613 174.84 60.418 175.493 60.4743C176.579 60.5769 177.394 60.4125 177.936 59.9809C178.475 59.5761 178.82 59.2488 178.973 58.999C179.031 59.1467 179.059 59.3034 179.058 59.4688C179.053 59.6611 179.037 59.8376 179.009 59.9985C178.922 60.508 178.731 60.9857 178.434 61.4317C178.159 61.909 177.921 62.2547 177.719 62.4685C177.175 63.0656 176.61 63.4658 176.024 63.6692C175.437 63.8725 174.916 63.9353 174.46 63.8575ZM180.214 36.9428C182.051 37.1736 183.846 37.1628 185.6 36.9104C187.386 36.6357 188.895 36.1207 190.127 35.3654C191.239 34.6722 191.857 33.9637 191.98 33.2398C192.045 32.6989 191.832 32.2487 191.342 31.889C190.878 31.5339 190.257 31.29 189.48 31.1573C188.568 31.0016 187.542 31.0333 186.401 31.2524C185.26 31.4715 184.173 31.9345 183.142 32.6414C182.115 33.3215 181.302 34.2864 180.702 35.5361C180.513 36.0004 180.35 36.4693 180.214 36.9428ZM182.512 40.9361C182.888 41.0002 183.091 40.9384 183.123 40.7507C183.155 40.5631 182.96 40.3365 182.536 40.071C182.117 39.7786 181.398 39.5455 180.379 39.3716C180.667 39.9451 181.168 40.4032 181.883 40.7458C182.012 40.7955 182.115 40.8407 182.191 40.8812C182.298 40.8995 182.405 40.9178 182.512 40.9361ZM169.615 54.1728C170.089 54.3088 170.598 54.3958 171.143 54.4337C173.016 54.6155 174.667 54.5662 176.094 54.2856C177.544 54.0364 178.802 53.6166 179.869 53.0261C180.962 52.4401 181.915 51.7888 182.727 51.0721C183.539 50.3553 184.155 49.6602 184.573 48.9866C185.019 48.3176 185.292 47.6882 185.392 47.0983C185.543 46.2135 185.367 45.4661 184.865 44.8559C184.362 44.2458 183.628 43.8583 182.662 43.6935C182.314 43.634 181.932 43.6102 181.516 43.6219C181.104 43.6069 180.67 43.6432 180.214 43.7308C178.733 44.0022 177.279 44.6784 175.853 45.7594C174.458 46.8181 173.205 48.0943 172.095 49.588C171.011 51.0862 170.185 52.6144 169.615 54.1728Z" fill="white"/>
<path d="M199.01 61.3486C197.585 60.6723 197.216 59.6092 197.904 58.1593C198.196 57.545 198.597 56.9527 199.109 56.3825C199.645 55.824 200.146 55.3696 200.614 55.0193C200.577 55.0322 200.535 55.027 200.485 55.0037C200.387 54.9571 200.337 54.8729 200.334 54.7513C200.332 54.6297 200.36 54.5379 200.42 54.4758C200.793 54.2613 201.286 53.9835 201.899 53.6423C202.513 53.3012 203.162 52.9472 203.848 52.5802C204.571 52.2004 205.238 51.8399 205.852 51.4987C206.502 51.1447 207.025 50.8662 207.422 50.6634C207.642 50.7075 207.935 50.7563 208.302 50.8096C208.692 50.8745 209.047 50.9828 209.367 51.1344C209.711 51.2977 209.922 51.5184 210.001 51.7966C209.437 52.1611 208.619 52.6463 207.549 53.2523C206.49 53.8338 205.366 54.4896 204.176 55.2197C203.023 55.937 201.962 56.6827 200.992 57.457C200.059 58.2184 199.423 58.9554 199.085 59.6681C198.91 60.0367 198.855 60.3116 198.919 60.4927C199.009 60.6856 199.139 60.8228 199.311 60.9044C199.459 60.9744 199.66 61.025 199.917 61.0562C200.209 61.0745 200.556 61.0735 200.957 61.0531C201.674 61.0018 202.412 60.8406 203.173 60.5694C203.959 60.3099 204.689 60.009 205.363 59.6666C206.062 59.3359 206.628 59.0627 207.062 58.8469C207.128 58.517 207.26 58.1432 207.458 57.7255C207.692 57.234 207.967 56.7477 208.286 56.2667C208.629 55.7973 208.943 55.3893 209.228 55.0428C209.609 54.6213 210.02 54.2296 210.463 53.8676C210.931 53.5173 211.369 53.2589 211.78 53.0923C212.226 52.9127 212.56 52.8755 212.781 52.9804C212.978 53.0737 213.115 53.2595 213.194 53.5377C213.309 53.803 213.285 54.1076 213.122 54.4517C213.017 54.6728 212.851 54.9256 212.626 55.2101C212.425 55.5063 212.152 55.8282 211.806 56.176C211.39 56.6104 210.863 57.0532 210.228 57.5042C209.604 57.9308 209.04 58.2952 208.535 58.5976C208.03 58.9 207.717 59.0828 207.597 59.1461C207.563 59.2807 207.551 59.5912 207.561 60.0776C207.608 60.5512 207.84 60.8871 208.257 61.0853C208.823 61.3535 209.462 61.3708 210.175 61.1371C210.924 60.8905 211.629 60.5475 212.289 60.1081C212.434 60.0565 212.58 60.0656 212.727 60.1356C212.777 60.1589 212.808 60.2191 212.822 60.3161C212.848 60.3886 212.807 60.4746 212.7 60.5742C211.535 61.316 210.57 61.7312 209.806 61.82C209.053 61.8841 208.443 61.8054 207.976 61.5839C207.509 61.3623 207.192 61.0464 207.025 60.6362C206.883 60.2376 206.834 59.8979 206.877 59.6172C206.54 59.8188 206.071 60.0779 205.469 60.3944C204.867 60.711 204.186 61.0049 203.425 61.276C202.7 61.5343 201.949 61.6896 201.172 61.7421C200.394 61.7946 199.674 61.6635 199.01 61.3486Z" fill="white"/>
<path d="M218.148 72.3128C217.576 71.8966 217.133 71.3725 216.819 70.7404C216.522 70.0864 216.476 69.3634 216.682 68.5716C216.816 68.0637 217.068 67.5569 217.436 67.0511C217.884 66.4353 218.445 65.9186 219.119 65.5009C219.955 64.9993 220.926 64.6127 222.032 64.3412C223.138 64.0697 224.262 63.9122 225.404 63.8686C226.546 63.8251 227.6 63.9025 228.566 64.1009C229.548 64.2772 230.324 64.5735 230.896 64.9897C231.38 65.3419 231.669 65.7539 231.763 66.2259C231.816 66.5679 231.707 66.9258 231.435 67.2997C231.083 67.7835 230.488 68.2082 229.65 68.5738C228.85 68.9335 227.952 69.1041 226.956 69.0857C226.33 69.0674 225.659 68.9492 224.943 68.7309C224.265 68.5067 223.619 68.1704 223.003 67.7222C222.805 67.5782 222.604 67.4151 222.4 67.233C222.218 67.067 222.044 66.8899 221.878 66.7019C221.596 66.7658 221.201 66.9156 220.693 67.1514C220.223 67.3811 219.743 67.6709 219.253 68.0207C218.785 68.3865 218.399 68.7783 218.095 69.1961C217.701 69.7839 217.558 70.3028 217.668 70.7528C217.816 71.1968 218.099 71.5708 218.517 71.875C219.352 72.4832 220.347 72.8036 221.501 72.8361C222.693 72.8626 223.896 72.7121 225.11 72.3846C226.324 72.0571 227.415 71.6906 228.383 71.285C228.513 71.2451 228.6 71.2411 228.644 71.2731C228.704 71.2832 228.745 71.2962 228.767 71.3122C228.833 71.3602 228.864 71.4332 228.86 71.5312C228.878 71.6452 228.825 71.7411 228.701 71.8191C228.079 72.0728 227.305 72.3505 226.379 72.6521C225.475 72.9697 224.499 73.2012 223.451 73.3468C222.441 73.4864 221.426 73.471 220.406 73.3006C220.008 73.2464 219.609 73.1243 219.209 72.9341C218.831 72.76 218.477 72.5529 218.148 72.3128ZM223.042 67.0443C224.076 67.7967 225.203 68.2131 226.422 68.2936C227.68 68.3681 228.776 68.1565 229.71 67.6589C229.948 67.5631 230.134 67.4461 230.268 67.3082C230.424 67.1863 230.534 67.0813 230.598 66.9934C230.871 66.6195 230.798 66.2805 230.38 65.9764C230.116 65.7843 229.771 65.6342 229.345 65.526C228.941 65.4339 228.554 65.3877 228.184 65.3876C227.542 65.3913 226.822 65.456 226.024 65.5817C225.265 65.7014 224.549 65.8531 223.877 66.0368C223.221 66.1985 222.717 66.3363 222.365 66.4501C222.458 66.5521 222.563 66.6622 222.679 66.7802C222.811 66.8762 222.932 66.9643 223.042 67.0443Z" fill="white"/>
<path d="M236.417 89.3135C235.981 88.8279 235.76 88.2767 235.755 87.6601C235.769 87.0252 236.07 86.4443 236.657 85.9172C237.365 85.2811 238.276 84.8292 239.388 84.5614C240.52 84.2755 241.706 84.0695 242.946 83.9435C244.185 83.8174 245.3 83.675 246.291 83.5163C246.876 83.3936 247.289 83.2232 247.532 83.0051C247.815 82.7506 247.839 82.4919 247.603 82.2288C247.421 82.0264 247.017 81.841 246.39 81.6726C245.784 81.4859 244.895 81.3516 243.725 81.2695C242.573 81.2076 241.368 81.2296 240.11 81.3355C238.891 81.4434 237.708 81.5918 236.561 81.7806C235.433 81.9897 234.411 82.1948 233.495 82.3961C232.597 82.6175 231.913 82.7927 231.444 82.9216C231.256 82.8345 231.052 82.6887 230.832 82.4843C230.63 82.3001 230.429 82.0967 230.229 81.8741C229.775 81.3682 229.505 81.007 229.42 80.7906C230.021 80.7265 230.836 80.6162 231.865 80.4595C232.913 80.3232 234.029 80.1616 235.214 79.9748C236.419 79.7698 237.537 79.5698 238.568 79.3748C239.153 79.2521 239.786 79.1223 240.467 78.9855C241.149 78.8488 241.763 78.6988 242.312 78.5356C242.88 78.3542 243.265 78.1727 243.468 77.9909C243.67 77.8092 243.698 77.6374 243.553 77.4755C243.462 77.3743 243.293 77.2882 243.047 77.2172C242.8 77.1461 242.532 77.1125 242.243 77.1163C241.667 77.0853 240.837 77.1178 239.753 77.2137C238.708 77.3117 237.223 77.5305 235.298 77.8702C235.142 77.9004 235.001 77.8446 234.873 77.703C234.728 77.5411 234.803 77.4007 235.098 77.2817C236.012 77.1189 236.935 76.9662 237.867 76.8236C238.82 76.6628 239.732 76.5384 240.603 76.4504C241.493 76.3826 242.244 76.3844 242.857 76.4558C243.507 76.5292 244.015 76.7683 244.378 77.1731C244.723 77.5576 244.855 77.9691 244.774 78.4078C244.693 78.8464 244.48 79.2202 244.136 79.5292C243.731 79.8927 243.204 80.2015 242.555 80.4555C242.709 80.4638 242.853 80.4619 242.989 80.4499C243.142 80.4581 243.296 80.4664 243.45 80.4746C244.835 80.5105 245.999 80.7078 246.943 81.0666C247.925 81.4275 248.643 81.8609 249.098 82.3668C249.443 82.7513 249.633 83.166 249.666 83.6108C249.719 84.0759 249.573 84.4629 249.229 84.7719C248.824 85.1353 248.211 85.4299 247.39 85.6555C246.569 85.881 245.742 86.0389 244.909 86.129C244.094 86.2394 243.445 86.3105 242.961 86.3423C242.632 86.3824 242.012 86.4454 241.102 86.5314C240.213 86.5992 239.357 86.7459 238.536 86.9715C238.166 87.048 237.853 87.1467 237.596 87.2677C237.377 87.3908 237.187 87.5251 237.025 87.6705C236.56 88.0885 236.518 88.51 236.9 88.935C237.318 89.4004 238.109 89.7318 239.273 89.9291C240.189 90.0938 241.235 90.1596 242.412 90.1265C243.627 90.0954 244.906 89.9522 246.248 89.6968C246.404 89.6666 246.509 89.6819 246.564 89.7426C246.639 89.7851 246.685 89.8165 246.703 89.8368C246.83 89.9784 246.745 90.1279 246.448 90.2853C244.99 90.5345 243.576 90.6897 242.205 90.751C240.852 90.8325 239.652 90.7584 238.605 90.5289C237.673 90.3055 236.944 89.9004 236.417 89.3135Z" fill="white"/>
<path d="M246.721 103.129C246.321 102.449 246.15 101.729 246.209 100.97C246.304 100.219 246.727 99.6238 247.477 99.1828C247.876 98.9485 248.242 98.7652 248.574 98.633C248.93 98.4869 249.332 98.3926 249.78 98.3501C250.266 98.3172 250.893 98.3112 251.663 98.3322C252.446 98.3767 253.457 98.4606 254.697 98.5838L259.829 99.0225L258.713 97.123L259.406 97.0943L260.584 99.0993L266.283 99.5362C266.962 99.8316 267.514 100.343 267.942 101.07C268.148 101.421 268.296 101.808 268.386 102.228L262.025 101.471L263.493 103.968L262.8 103.997L261.27 101.394L255.474 100.872C255.204 100.842 254.738 100.8 254.076 100.747C253.437 100.681 252.715 100.632 251.908 100.602C251.115 100.594 250.349 100.634 249.612 100.721C248.897 100.793 248.305 100.968 247.836 101.243C247.063 101.698 246.896 102.301 247.337 103.051C247.571 103.45 247.951 103.826 248.474 104.181C249.577 104.984 250.783 105.506 252.092 105.746C253.438 105.997 254.868 106.15 256.384 106.205C256.519 106.221 256.628 106.299 256.711 106.439C256.752 106.51 256.751 106.589 256.709 106.677C256.666 106.765 256.584 106.814 256.462 106.822C255.558 106.786 254.602 106.716 253.595 106.614C252.589 106.511 251.599 106.304 250.627 105.992C249.669 105.703 248.803 105.25 248.029 104.632C247.515 104.24 247.079 103.739 246.721 103.129Z" fill="white"/>
<path d="M263.896 123.757C263.926 123.833 263.912 123.911 263.856 123.991C263.799 124.072 263.685 124.116 263.514 124.124C261.149 123.671 259.266 122.842 257.863 121.636C256.486 120.42 255.368 119.118 254.508 117.731C254.119 117.181 253.797 116.577 253.541 115.918C253.206 115.056 253.056 114.181 253.09 113.292C253.124 112.403 253.457 111.646 254.09 111.021C254.411 110.721 254.762 110.498 255.142 110.35C255.7 110.133 256.236 110.085 256.75 110.207C257.299 110.344 257.726 110.542 258.032 110.803C258.237 110.956 258.397 111.142 258.511 111.361C258.66 111.595 258.784 111.838 258.883 112.092C259.011 112.421 259.086 112.728 259.108 113.011C259.265 113.038 259.721 113.123 260.477 113.267C261.259 113.401 262.176 113.584 263.23 113.817C264.308 114.04 265.346 114.308 266.343 114.621C267.411 114.965 268.329 115.338 269.098 115.739C269.867 116.141 270.33 116.471 270.49 116.731C270.544 116.797 270.587 116.868 270.616 116.944C270.646 117.02 270.67 117.083 270.69 117.134C270.798 117.413 270.814 117.641 270.736 117.817C270.669 118.018 270.546 118.153 270.369 118.222C270.191 118.291 269.974 118.259 269.718 118.125C269.472 118.016 269.279 117.784 269.142 117.429C268.984 117.024 268.712 116.662 268.326 116.345C267.966 116.019 267.632 115.871 267.323 115.904C267.065 115.916 266.797 115.977 266.518 116.085C266.062 116.262 265.635 116.516 265.238 116.845C264.85 117.2 264.458 117.542 264.061 117.871C263.663 118.201 263.249 118.522 262.816 118.836C262.393 119.176 261.903 119.454 261.345 119.67C260.838 119.867 260.289 119.993 259.698 120.048C258.524 120.183 257.46 119.998 256.506 119.493C257.165 120.288 258.051 121.067 259.165 121.831C260.278 122.594 261.735 123.152 263.535 123.503C263.691 123.53 263.779 123.569 263.799 123.62C263.854 123.686 263.886 123.732 263.896 123.757ZM253.858 115.27C253.986 115.599 254.17 115.922 254.409 116.237C254.648 116.553 254.946 116.831 255.302 117.072C255.759 117.42 256.35 117.628 257.077 117.696C257.803 117.764 258.556 117.748 259.335 117.65C260.149 117.567 260.9 117.436 261.589 117.256C262.288 117.101 262.827 116.95 263.208 116.802C263.74 116.595 264.253 116.338 264.746 116.029C265.249 115.747 265.759 115.519 266.275 115.348C265.298 115.085 264.203 114.781 262.989 114.436C261.785 114.116 260.484 113.848 259.087 113.632C259.028 114.005 258.911 114.342 258.736 114.644C258.597 114.961 258.288 115.256 257.81 115.529C257.617 115.633 257.365 115.658 257.052 115.604C256.775 115.566 256.562 115.357 256.414 114.977C256.316 114.723 256.343 114.567 256.495 114.508C256.621 114.459 256.765 114.49 256.926 114.603C257.227 114.778 257.504 114.816 257.758 114.717C257.91 114.658 258.047 114.561 258.17 114.426C258.431 114.12 258.573 113.773 258.597 113.385C258.631 113.021 258.579 112.662 258.441 112.307C258.244 111.8 257.925 111.428 257.482 111.191C257.111 110.986 256.748 110.879 256.395 110.87C256.066 110.852 255.75 110.901 255.446 111.02C254.964 111.207 254.557 111.511 254.225 111.932C253.917 112.343 253.731 112.765 253.666 113.199C253.528 113.895 253.592 114.585 253.858 115.27Z" fill="white"/>
<path d="M268.975 149.207C268.965 148.989 269.096 148.874 269.367 148.861C269.721 148.844 270.027 148.993 270.287 149.307C270.44 149.654 270.541 150.33 270.589 151.335C270.621 151.987 270.627 152.695 270.61 153.458C270.593 154.248 270.56 154.985 270.512 155.668C270.464 156.379 270.383 156.955 270.268 157.396C270.181 157.863 270.07 158.1 269.934 158.106L269.808 158.031C269.689 157.818 269.572 157.361 269.456 156.659C269.369 155.982 269.291 155.196 269.22 154.301C269.177 153.404 269.134 152.508 269.091 151.611L268.975 149.207Z" fill="white"/>
<path d="M235.914 189.803C235.98 189.624 236.09 189.563 236.243 189.62C236.345 189.658 236.423 189.759 236.478 189.925C236.558 190.099 236.675 190.215 236.828 190.272C237.109 190.376 237.435 190.395 237.807 190.33C238.17 190.291 238.466 190.197 238.694 190.05C239.022 189.011 239.515 188.15 240.175 187.466C240.958 186.683 241.966 185.998 243.199 185.411C244.423 184.849 245.797 184.546 247.322 184.502C247.056 184.201 246.829 183.914 246.64 183.641C246.442 183.393 246.28 183.086 246.155 182.721C245.686 182.576 245.366 182.225 245.196 181.669C244.99 181.129 244.892 180.57 244.903 179.994C244.888 179.408 244.933 178.975 245.037 178.695C245.131 178.44 245.319 178.089 245.601 177.642C245.873 177.221 246.227 176.815 246.661 176.425C247.061 176.051 247.507 175.825 248.001 175.747C247.947 175.814 247.901 175.898 247.863 176C247.816 176.128 247.773 176.243 247.735 176.345C247.584 176.753 247.511 177.262 247.517 177.874C247.487 178.501 247.7 179.218 248.155 180.025C248.456 180.543 248.512 181.057 248.323 181.567C248.191 181.924 247.979 182.222 247.687 182.462C247.369 182.692 247.021 182.81 246.642 182.814C246.761 183.12 246.945 183.405 247.194 183.672C247.434 183.964 247.787 184.225 248.253 184.456C248.278 184.465 248.304 184.475 248.329 184.484C248.32 184.51 248.315 184.523 248.315 184.523C248.907 184.568 249.516 184.649 250.14 184.764C250.755 184.905 251.381 185.094 252.019 185.33C252.682 185.576 253.352 185.882 254.028 186.249C254.704 186.616 255.382 187.056 256.062 187.569C256.801 186.595 257.678 185.716 258.693 184.933C258.738 184.891 258.784 184.807 258.831 184.679C258.916 184.45 258.923 184.118 258.851 183.686C258.805 183.262 258.697 182.889 258.527 182.565C258.357 182.241 258.126 182.082 257.833 182.09L257.537 182.067C257.435 182.029 257.398 181.972 257.426 181.896C257.502 181.692 257.713 181.552 258.06 181.478C258.371 181.419 258.68 181.447 258.986 181.56C259.267 181.664 259.468 181.826 259.59 182.045C259.728 182.299 259.791 182.598 259.779 182.942C259.759 183.311 259.691 183.649 259.578 183.955C259.502 184.159 259.406 184.341 259.289 184.501C259.587 184.321 259.999 184.111 260.523 183.87C261.047 183.63 261.585 183.394 262.135 183.163C262.675 182.957 263.119 182.817 263.465 182.742C264.747 182.492 265.917 182.389 266.974 182.433C268.022 182.502 268.979 182.698 269.846 183.019C271.249 183.539 272.337 184.32 273.112 185.361C273.911 186.412 274.401 187.594 274.581 188.908C274.761 190.223 274.61 191.53 274.128 192.831C273.646 194.131 272.857 195.319 271.763 196.392L271.749 196.431C271.702 196.558 271.642 196.681 271.569 196.799C271.522 196.927 271.479 197.041 271.441 197.143C271.337 197.424 271.268 197.688 271.234 197.937C271.191 198.211 271.182 198.469 271.208 198.71C271.269 198.704 271.347 198.689 271.442 198.667C271.538 198.644 271.636 198.652 271.738 198.689L271.93 198.76C272.185 198.855 272.348 199.002 272.418 199.203C272.515 199.412 272.565 199.59 272.568 199.737C272.614 199.928 272.659 200.119 272.704 200.309C272.766 200.535 272.863 200.702 272.997 200.81C273.08 200.899 273.16 200.957 273.237 200.985C273.339 201.023 273.428 201.056 273.505 201.085C273.632 201.132 273.752 201.162 273.863 201.174C273.965 201.212 274.054 201.245 274.131 201.273C273.778 201.52 273.349 201.622 272.843 201.579C272.336 201.536 271.943 201.463 271.662 201.359C271.101 201.151 270.737 200.842 270.57 200.432C270.419 200.057 270.405 199.704 270.528 199.372C270.623 199.117 270.744 198.945 270.894 198.855C270.81 198.534 270.799 198.211 270.861 197.886C270.914 197.586 270.993 197.296 271.097 197.016L270.859 197.188C269.941 197.864 268.933 198.432 267.833 198.895C266.724 199.383 265.577 199.698 264.393 199.839C264.714 200.538 265.005 201.241 265.266 201.946C265.542 202.687 265.806 203.423 266.057 204.154C266.449 204.271 266.828 204.382 267.195 204.489C267.577 204.631 267.947 204.768 268.304 204.901C269.809 205.458 271.23 206.203 272.567 207.134C273.905 208.065 275.089 209.447 276.121 211.28C276.544 212.017 276.778 212.756 276.822 213.498C276.892 214.249 276.813 214.93 276.586 215.542C276.255 216.435 275.726 217.08 274.998 217.478C274.639 217.664 274.235 217.775 273.787 217.812C273.363 217.858 272.922 217.796 272.463 217.626C272.004 217.455 271.532 217.164 271.047 216.752C270.561 216.34 270.085 215.786 269.617 215.091C269.207 214.475 268.795 213.669 268.381 212.674C267.967 211.68 267.571 210.634 267.195 209.537C266.818 208.44 266.464 207.438 266.133 206.532C265.113 206.386 264.086 206.223 263.051 206.042C262.016 205.862 261.013 205.592 260.044 205.232C259.075 204.873 258.145 204.369 257.254 203.719C256.354 203.096 255.557 202.234 254.862 201.135C253.905 199.649 253.391 198.023 253.32 196.256C253.215 194.505 253.465 192.814 254.07 191.182C254.373 190.366 254.742 189.603 255.179 188.895C254.684 188.508 254.18 188.147 253.666 187.812C253.117 187.492 252.597 187.213 252.106 186.972C252.106 186.972 252.046 186.979 251.925 186.992C251.103 186.862 250.398 186.963 249.811 187.296C249.923 187.541 249.932 187.791 249.837 188.046C249.686 188.454 249.456 188.644 249.147 188.617C248.485 188.603 248.011 188.747 247.725 189.047C247.405 189.363 247.199 189.606 247.107 189.775C247.011 189.565 246.98 189.336 247.014 189.088C247.039 188.865 247.094 188.639 247.179 188.409C247.245 188.231 247.319 188.07 247.401 187.926C247.484 187.782 247.556 187.664 247.62 187.572C247.737 187.412 247.967 187.222 248.31 187.001C248.627 186.771 248.952 186.717 249.284 186.84C249.437 186.896 249.555 186.969 249.638 187.058C249.936 186.879 250.224 186.768 250.501 186.725C250.752 186.673 251.024 186.644 251.317 186.636C249.78 186.009 248.324 185.672 246.949 185.626C245.564 185.606 244.344 185.806 243.288 186.227C242.198 186.664 241.318 187.237 240.649 187.946C240.069 188.573 239.623 189.306 239.311 190.148C238.98 191.041 238.829 191.957 238.858 192.896C238.852 193.851 239.035 194.687 239.407 195.405C239.769 196.149 240.308 196.653 241.022 196.918C241.098 196.946 241.175 196.975 241.251 197.003C241.328 197.031 241.409 197.047 241.495 197.05C241.708 197.1 241.98 197.07 242.311 196.961C242.616 196.842 242.91 196.559 243.191 196.112C243.337 195.876 243.564 195.656 243.872 195.451C244.154 195.236 244.48 195.14 244.85 195.161C244.91 195.154 245.004 195.174 245.132 195.222C245.54 195.373 245.788 195.682 245.875 196.15C245.879 196.296 245.855 196.36 245.804 196.341C245.728 196.313 245.648 196.254 245.565 196.165C245.482 196.077 245.428 196.028 245.402 196.018C245.275 195.971 245.131 196.005 244.973 196.12C244.779 196.251 244.649 196.406 244.583 196.585C244.479 196.865 244.389 197.107 244.313 197.311C244.212 197.506 244.103 197.683 243.986 197.843C244.123 197.865 244.252 197.869 244.373 197.856C244.484 197.868 244.586 197.906 244.679 197.969C245.017 198.152 245.217 198.357 245.278 198.583C245.314 198.799 245.299 198.997 245.232 199.175C245.195 199.277 245.122 199.395 245.014 199.529C244.925 199.612 244.83 199.635 244.728 199.597C244.6 199.55 244.562 199.42 244.612 199.206C244.652 199.018 244.555 198.851 244.319 198.706C244.057 198.551 243.781 198.434 243.491 198.356C243.288 198.512 243.083 198.596 242.876 198.606C242.634 198.633 242.411 198.608 242.207 198.532C241.774 198.372 241.473 198.086 241.306 197.676C241.195 197.664 241.101 197.643 241.024 197.615C240.922 197.577 240.82 197.539 240.718 197.502C239.928 197.208 239.334 196.698 238.936 195.971C238.513 195.234 238.274 194.391 238.22 193.442C238.165 192.494 238.265 191.559 238.52 190.638C238.352 190.779 238.128 190.913 237.848 191.042C237.559 191.196 237.298 191.273 237.066 191.274C236.945 191.287 236.846 191.279 236.77 191.251C236.693 191.223 236.617 191.194 236.54 191.166C236.209 191.043 236.009 190.838 235.941 190.552C235.847 190.257 235.839 190.007 235.914 189.803ZM266.916 206.649C267.232 207.52 267.561 208.469 267.906 209.496C268.25 210.523 268.614 211.499 268.996 212.424C269.369 213.374 269.752 214.14 270.146 214.721C270.572 215.372 270.994 215.877 271.412 216.235C271.856 216.603 272.282 216.862 272.69 217.013C273.047 217.146 273.394 217.188 273.732 217.139C274.085 217.124 274.406 217.041 274.695 216.887C275.283 216.553 275.705 216.042 275.96 215.354C276.158 214.818 276.234 214.223 276.187 213.567C276.14 212.911 275.934 212.255 275.569 211.597C274.95 210.527 274.234 209.681 273.42 209.06C272.606 208.439 271.714 207.949 270.745 207.59C270.133 207.363 269.507 207.174 268.866 207.023C268.216 206.899 267.566 206.774 266.916 206.649ZM256.465 187.892C256.867 188.215 257.273 188.569 257.682 188.952C258.091 189.336 258.49 189.745 258.88 190.18C259.96 191.335 260.935 192.697 261.803 194.266C262.663 195.861 263.45 197.531 264.167 199.276C265.281 199.167 266.362 198.872 267.411 198.39C268.46 197.909 269.392 197.312 270.207 196.599C271.438 195.547 272.291 194.383 272.763 193.108C273.217 191.884 273.305 190.669 273.027 189.463C272.774 188.267 272.216 187.19 271.353 186.232C270.515 185.283 269.459 184.573 268.184 184.1C266.908 183.627 265.507 183.456 263.979 183.585C262.331 183.728 260.87 184.188 259.596 184.963C258.338 185.773 257.295 186.749 256.465 187.892ZM255.184 190.289C254.636 191.769 254.465 193.286 254.671 194.842C254.894 196.433 255.538 197.905 256.603 199.257C257.684 200.644 259.248 201.746 261.295 202.563C261.949 202.834 262.586 203.071 263.208 203.272C263.855 203.483 264.494 203.676 265.125 203.852C264.845 203.198 264.571 202.53 264.301 201.85C264.021 201.195 263.724 200.548 263.41 199.91C262.824 199.924 262.245 199.884 261.671 199.787C261.114 199.726 260.58 199.6 260.07 199.411C259.841 199.326 259.616 199.228 259.396 199.118C259.176 199.007 258.96 198.884 258.75 198.747L259.077 198.216C259.508 198.463 259.94 198.667 260.374 198.827C261.266 199.158 262.19 199.327 263.145 199.333C262.436 197.88 261.686 196.5 260.895 195.191C260.094 193.908 259.208 192.738 258.236 191.682C257.38 190.784 256.52 189.972 255.658 189.247C255.566 189.416 255.487 189.589 255.421 189.768C255.33 189.937 255.251 190.111 255.184 190.289ZM262.024 184.166C262.09 183.987 262.254 183.975 262.515 184.13C263.007 184.371 263.367 184.649 263.598 184.967C263.844 185.319 264.107 185.707 264.385 186.129C264.646 186.052 264.904 186.06 265.159 186.155C265.49 186.278 265.792 186.52 266.064 186.882C266.327 187.27 266.496 187.753 266.571 188.332C266.633 188.79 266.619 189.336 266.529 189.97C266.43 190.629 266.276 191.24 266.068 191.801C265.907 192.234 265.718 192.628 265.5 192.982C265.281 193.337 265.027 193.591 264.738 193.744C264.484 193.882 264.306 193.932 264.204 193.894C264.102 193.857 264.03 193.816 263.989 193.771C264.052 193.679 264.103 193.581 264.14 193.479C264.204 193.387 264.254 193.289 264.292 193.187C264.491 192.652 264.556 192.241 264.488 191.955C264.436 191.703 264.306 191.467 264.099 191.245C263.916 191.032 263.71 190.767 263.48 190.449C263.265 190.167 263.103 189.744 262.993 189.181C262.866 188.583 262.902 188.016 263.101 187.481C263.262 187.047 263.51 186.69 263.847 186.408C263.692 185.887 263.477 185.488 263.202 185.212C262.927 184.936 262.595 184.697 262.206 184.495C262.037 184.403 261.976 184.293 262.024 184.166Z" fill="white"/>
<path d="M244.112 214.67C244.568 214.061 245.147 213.764 245.849 213.78C246.573 213.812 247.305 214.105 248.045 214.659C248.85 215.263 249.624 216.181 250.364 217.416C250.773 218.096 251.102 218.903 251.353 219.839C251.626 220.79 251.787 221.778 251.837 222.8C251.908 223.839 251.838 224.84 251.627 225.803C251.421 226.805 251.032 227.686 250.462 228.448C250.022 229.036 249.568 229.325 249.1 229.314C248.632 229.303 248.18 229.135 247.745 228.809C247.331 228.499 246.956 228.116 246.618 227.659L248.024 231.567C248.019 231.801 247.821 232.179 247.429 232.702C247.136 233.093 246.815 233.431 246.467 233.714C246.103 234.019 245.891 234.03 245.831 233.747C245.743 233.41 245.634 232.852 245.503 232.075C245.377 231.335 245.197 230.486 244.963 229.529C244.712 228.594 244.412 227.655 244.063 226.715C243.856 226.22 243.556 225.485 243.164 224.512C242.755 223.56 242.314 222.72 241.84 221.991C241.546 221.567 241.279 221.266 241.04 221.086C240.583 220.744 240.207 220.769 239.914 221.161C239.751 221.378 239.607 221.729 239.482 222.213C239.379 222.714 239.339 223.244 239.361 223.805C239.405 224.925 239.624 226.04 240.016 227.15C240.43 228.276 240.787 229.274 241.087 230.144C241.093 230.182 241.098 230.22 241.104 230.258C241.093 230.318 241.055 230.391 240.99 230.478C240.924 230.566 240.832 230.598 240.712 230.577C240.614 230.571 240.543 230.484 240.5 230.316C240.042 229.021 239.63 227.778 239.265 226.587C238.921 225.413 238.738 224.341 238.716 223.373C238.694 222.404 238.951 221.561 239.489 220.843C239.913 220.277 240.419 219.942 241.006 219.838C241.599 219.772 242.19 219.959 242.778 220.4C243.039 220.595 243.295 220.821 243.545 221.076C243.779 221.354 243.983 221.625 244.158 221.892C243.961 221.201 243.787 220.391 243.634 219.461C243.464 218.552 243.396 217.668 243.428 216.809C243.46 215.949 243.688 215.236 244.112 214.67ZM244.512 215.429C244.186 215.864 244.018 216.452 244.007 217.192C243.981 217.953 244.052 218.788 244.221 219.697C244.412 220.621 244.669 221.527 244.99 222.414C245.252 223.153 245.554 223.906 245.898 224.673C246.225 225.462 246.59 226.177 246.993 226.819C247.379 227.482 247.801 227.985 248.259 228.327C248.955 228.849 249.491 228.859 249.866 228.359C250.127 228.01 250.276 227.493 250.314 226.808C250.351 226.123 250.31 225.361 250.19 224.523C250.053 223.707 249.857 222.881 249.6 222.043C249.35 221.244 249.053 220.528 248.71 219.898C248.628 219.735 248.434 219.335 248.129 218.699C247.808 218.084 247.443 217.437 247.034 216.757C246.61 216.099 246.18 215.607 245.744 215.281C245.265 214.922 244.855 214.972 244.512 215.429Z" fill="white"/>
<path d="M215.27 242.91C215.926 242.425 216.517 242.241 217.044 242.359C217.587 242.498 218.029 242.798 218.368 243.257C218.676 243.672 218.89 244.123 219.012 244.608C219.379 245.927 219.571 247.171 219.591 248.341C219.588 249.527 219.637 250.827 219.736 252.242C219.807 253.07 219.947 253.625 220.157 253.91C220.351 254.172 220.58 254.206 220.842 254.012C221.192 253.754 221.525 253.152 221.842 252.207C222.174 251.285 222.383 250.149 222.468 248.801C222.529 247.876 222.56 246.821 222.563 245.635C222.544 244.465 222.519 243.334 222.488 242.24C222.457 241.146 222.417 240.246 222.367 239.538C222.318 238.831 222.293 238.477 222.293 238.477C222.392 238.336 222.575 238.15 222.843 237.918C223.095 237.664 223.363 237.431 223.648 237.221C223.823 237.092 223.995 236.981 224.164 236.89C224.295 236.793 224.423 236.715 224.549 236.656C224.573 237.146 224.598 237.82 224.625 238.68C224.63 239.556 224.646 240.492 224.672 241.488C224.692 242.521 224.718 243.517 224.75 244.475C224.797 245.454 224.835 246.306 224.863 247.03C224.891 247.753 224.915 248.243 224.935 248.499C225.01 249.424 225.201 250.095 225.509 250.51C225.719 250.795 225.944 250.848 226.185 250.67C226.382 250.524 226.583 250.156 226.788 249.564C227.009 248.994 227.227 248.123 227.442 246.949C227.578 246.172 227.662 245.348 227.695 244.478C227.728 243.608 227.74 242.754 227.729 241.916C227.743 240.654 227.726 239.465 227.679 238.35C227.649 237.256 227.616 236.366 227.583 235.681C227.528 235.011 227.503 234.658 227.508 234.619C227.635 234.424 227.81 234.227 228.035 234.027C228.237 233.844 228.448 233.671 228.666 233.509C228.907 233.331 229.145 233.172 229.38 233.033C229.593 232.909 229.74 232.834 229.822 232.807C229.818 233.351 229.816 234.08 229.815 234.994C229.815 235.908 229.832 236.893 229.869 237.948C229.9 239.042 229.944 240.109 230.002 241.148C230.039 242.204 230.092 243.145 230.163 243.973C230.234 244.8 230.306 245.423 230.379 245.843C230.553 246.627 230.721 247.129 230.883 247.347C231.061 247.588 231.248 247.636 231.445 247.49C231.554 247.409 231.684 247.195 231.833 246.848C231.972 246.441 232.076 245.873 232.146 245.145C232.211 244.454 232.246 243.701 232.251 242.885C232.257 242.069 232.246 241.299 232.218 240.575C232.19 239.852 232.158 239.283 232.123 238.869C232.151 238.815 232.197 238.764 232.263 238.715C232.35 238.65 232.44 238.635 232.532 238.668C232.625 238.701 232.692 238.77 232.735 238.873C232.76 239.227 232.775 239.774 232.781 240.514C232.803 241.276 232.817 242.094 232.822 242.97C232.805 243.862 232.77 244.684 232.716 245.434C232.678 246.206 232.603 246.769 232.492 247.122C232.275 247.789 231.959 248.277 231.544 248.584C231.172 248.859 230.78 248.946 230.367 248.846C229.97 248.767 229.618 248.52 229.311 248.104C228.891 247.535 228.556 246.785 228.306 245.853C228.31 246.087 228.258 246.498 228.151 247.084C228.06 247.693 227.961 248.291 227.853 248.878C227.724 249.481 227.629 249.855 227.568 250.002C227.342 250.474 227.098 250.875 226.834 251.205C226.549 251.551 226.264 251.829 225.98 252.039C225.433 252.444 224.953 252.596 224.541 252.495C224.312 252.461 224.093 252.301 223.883 252.017C223.673 251.733 223.504 251.367 223.376 250.92C223.249 250.473 223.159 250.032 223.108 249.597C223.021 250.303 222.897 251.004 222.734 251.699C222.572 252.395 222.355 253.062 222.085 253.702C221.841 254.288 221.585 254.765 221.316 255.133C221.041 255.54 220.762 255.848 220.477 256.058C219.625 256.689 218.875 256.567 218.228 255.692C217.985 255.364 217.79 254.917 217.641 254.35C217.471 253.799 217.393 253.146 217.409 252.39C217.421 251.536 217.439 250.44 217.464 249.102C217.467 247.78 217.364 246.588 217.153 245.525C217.012 244.785 216.819 244.25 216.577 243.922C216.253 243.485 215.884 243.42 215.468 243.727C215.14 243.97 214.824 244.457 214.52 245.19C214.155 246.068 213.892 247.176 213.731 248.514C213.547 249.867 213.546 251.374 213.725 253.034C213.708 253.148 213.645 253.246 213.535 253.327C213.338 253.472 213.198 253.374 213.113 253.03C212.981 251.571 212.958 250.168 213.043 248.819C213.106 247.487 213.313 246.302 213.663 245.265C214.012 244.229 214.548 243.443 215.27 242.91Z" fill="white"/>
<path d="M197.123 252.764C198.063 252.406 198.828 252.464 199.416 252.939C200.004 253.413 200.448 254.045 200.748 254.833C200.951 255.366 201.104 255.92 201.205 256.492C201.281 257.074 201.313 257.615 201.299 258.115C201.261 259.469 201.149 261.01 200.964 262.74C200.762 264.504 200.487 266.341 200.136 268.25C199.76 270.168 199.302 272.06 198.76 273.925C198.219 275.79 197.594 277.512 196.885 279.091C196.177 280.671 195.384 281.991 194.508 283.052C193.713 284.024 192.859 284.684 191.943 285.032C191.384 285.245 190.873 285.28 190.411 285.135C189.958 285.017 189.616 284.652 189.384 284.042C189.287 283.788 189.214 283.481 189.164 283.122C189.089 282.772 189.068 282.372 189.101 281.923C189.135 281.095 189.279 280.211 189.532 279.271C189.76 278.34 190.009 277.503 190.279 276.76C191.081 274.738 191.983 273.056 192.986 271.714C193.998 270.397 194.97 269.357 195.902 268.595C196.819 267.868 197.532 267.334 198.043 266.994C198.065 266.899 198.117 266.501 198.2 265.8C198.292 265.124 198.394 264.285 198.507 263.282C198.63 262.304 198.73 261.305 198.808 260.286C198.895 259.292 198.95 258.442 198.972 257.735C198.994 257.028 198.982 256.349 198.938 255.696C198.868 255.054 198.741 254.491 198.557 254.008C198.402 253.601 198.202 253.343 197.956 253.232C197.695 253.157 197.437 253.168 197.183 253.265C196.598 253.487 196.091 253.913 195.661 254.543C195.241 255.197 194.896 255.896 194.625 256.639C194.277 257.558 194.025 258.425 193.869 259.241C193.699 260.092 193.607 260.578 193.595 260.699C193.972 261.079 194.287 261.599 194.539 262.26C194.751 262.82 194.861 263.375 194.867 263.925C194.857 264.511 194.636 264.886 194.204 265.051C193.975 265.138 193.741 265.096 193.501 264.925C193.236 264.764 193.036 264.506 192.9 264.15C192.784 263.845 192.724 263.533 192.719 263.215C192.731 263.094 192.754 262.809 192.787 262.36C192.819 261.911 192.88 261.611 192.968 261.461C192.787 260.832 192.521 260.438 192.17 260.281C191.828 260.149 191.518 260.136 191.238 260.242C190.908 260.368 190.605 260.643 190.33 261.068C190.065 261.518 189.865 262.177 189.729 263.043C189.707 263.139 189.671 263.196 189.62 263.216C189.553 263.27 189.507 263.302 189.482 263.312C189.406 263.341 189.338 263.279 189.28 263.127C189.207 263.009 189.16 262.925 189.141 262.874C189.406 261.813 189.684 261.052 189.975 260.592C190.25 260.168 190.628 259.863 191.111 259.679C191.493 259.534 191.875 259.505 192.257 259.593C192.624 259.715 192.913 259.94 193.125 260.266C193.183 259.808 193.291 259.213 193.45 258.484C193.609 257.754 193.844 256.995 194.155 256.207C194.441 255.429 194.829 254.728 195.32 254.105C195.785 253.491 196.386 253.044 197.123 252.764ZM197.823 267.908C197.379 268.193 196.797 268.691 196.078 269.401C195.334 270.121 194.56 271.071 193.757 272.249C192.929 273.438 192.185 274.885 191.525 276.592C191.26 277.274 190.981 278.108 190.687 279.093C190.367 280.088 190.176 280.961 190.112 281.713C190.063 282.576 190.115 283.211 190.27 283.618C190.454 284.101 190.774 284.255 191.232 284.081C191.639 283.926 192.072 283.572 192.53 283.019C192.974 282.501 193.347 281.952 193.649 281.371C194.166 280.359 194.659 279.168 195.126 277.796C195.604 276.451 196.033 275.094 196.415 273.726C196.771 272.368 197.082 271.159 197.347 270.097C197.587 269.045 197.746 268.315 197.823 267.908Z" fill="white"/>
<path d="M173.492 259.242C174.97 259.007 175.826 259.629 176.061 261.106C176.146 261.643 176.047 262.32 175.764 263.136C175.454 263.957 175.065 264.804 174.598 265.677C174.135 266.576 173.686 267.391 173.251 268.121C172.817 268.852 172.488 269.386 172.267 269.724C171.615 270.819 171.321 271.568 171.385 271.971C171.432 272.266 171.63 272.386 171.979 272.331C172.247 272.288 172.494 272.194 172.719 272.048C173.657 271.541 174.562 270.736 175.433 269.634C176.305 268.531 177.112 267.287 177.856 265.902C178.577 264.548 179.204 263.209 179.738 261.885C180.271 260.561 180.682 259.421 180.971 258.467C180.985 258.382 181.124 258.305 181.388 258.235C181.622 258.143 181.886 258.073 182.181 258.026C182.45 257.984 182.696 257.972 182.919 257.992C183.112 257.989 183.214 258.027 183.227 258.108C183.227 258.108 183.056 258.59 182.713 259.553C182.371 260.516 181.898 261.789 181.296 263.372C180.698 264.982 180.016 266.757 179.25 268.696C178.458 270.64 177.625 272.59 176.751 274.547C176.042 276.147 175.305 277.751 174.542 279.36C173.779 280.968 172.906 282.498 171.925 283.948C170.921 285.43 169.722 286.722 168.328 287.825C167.792 288.268 167.305 288.58 166.865 288.76C166.403 288.971 165.997 289.104 165.648 289.16C165.299 289.215 164.983 289.224 164.702 289.186C164.058 289.123 163.675 288.702 163.551 287.923C163.457 287.332 163.505 286.595 163.695 285.711C163.889 284.854 164.178 283.982 164.56 283.095C164.946 282.235 165.359 281.453 165.798 280.75C166.997 278.934 168.224 277.472 169.48 276.364C170.74 275.282 171.905 274.463 172.973 273.908C174.019 273.384 174.827 273.007 175.396 272.779C175.564 272.45 175.801 271.944 176.105 271.262C176.414 270.607 176.755 269.892 177.128 269.116C177.337 268.698 177.435 268.448 177.422 268.367C177.417 268.341 177.366 268.362 177.267 268.433C177.172 268.531 177.069 268.658 176.956 268.813C176.368 269.623 175.745 270.383 175.087 271.093C174.402 271.808 173.693 272.375 172.961 272.794C172.431 273.099 171.884 273.296 171.32 273.386C170.783 273.471 170.296 273.438 169.859 273.288C169.399 273.168 169.133 272.88 169.06 272.423C168.996 272.02 169.121 271.505 169.434 270.876C169.711 270.364 170.103 269.627 170.611 268.665C171.092 267.707 171.592 266.691 172.11 265.618C172.601 264.548 173.006 263.547 173.326 262.615C173.651 261.71 173.779 261.042 173.71 260.612C173.646 260.209 173.426 260.038 173.05 260.098C172.513 260.183 171.956 260.492 171.38 261.024C170.781 261.587 170.197 262.245 169.628 262.996C169.063 263.775 168.567 264.556 168.141 265.34C167.688 266.128 167.341 266.803 167.099 267.364C167.001 267.435 166.911 267.477 166.83 267.49C166.562 267.532 166.471 267.395 166.558 267.078C167.163 265.688 167.857 264.421 168.639 263.277C169.422 262.134 170.238 261.206 171.088 260.492C171.912 259.783 172.713 259.366 173.492 259.242ZM174.994 273.628C174.501 273.817 173.83 274.185 172.98 274.733C172.104 275.286 171.153 276.056 170.126 277.046C169.072 278.04 168.047 279.304 167.052 280.84C166.654 281.454 166.21 282.213 165.72 283.117C165.203 284.025 164.837 284.841 164.622 285.564C164.484 286.081 164.4 286.508 164.371 286.843C164.319 287.209 164.31 287.5 164.344 287.715C164.421 288.198 164.674 288.406 165.104 288.337C165.534 288.269 166.039 287.982 166.62 287.477C167.205 286.998 167.716 286.49 168.154 285.952C168.867 285.068 169.593 284.002 170.331 282.756C171.073 281.536 171.771 280.296 172.425 279.035C173.051 277.779 173.603 276.658 174.08 275.674C174.53 274.693 174.835 274.011 174.994 273.628Z" fill="white"/>
<path d="M154.211 260.377C154.755 260.396 155.238 260.576 155.662 260.918C156.058 261.258 156.246 261.727 156.225 262.325C156.201 263.005 155.999 263.733 155.618 264.509C155.21 265.284 154.777 265.976 154.32 266.586C153.863 267.223 153.563 267.635 153.42 267.82C152.908 268.455 152.436 269.106 152.004 269.771C151.545 270.463 151.307 271.026 151.292 271.461C151.278 271.869 151.446 272.133 151.795 272.254C152.09 272.373 152.399 272.493 152.722 272.613C153.043 272.76 153.285 272.851 153.447 272.883C153.533 272.75 153.735 272.431 154.052 271.925C154.368 271.446 154.742 270.887 155.172 270.249C155.575 269.637 155.963 269.039 156.337 268.453C156.712 267.867 156.999 267.428 157.2 267.136C157.37 266.951 157.509 266.861 157.618 266.865C157.726 266.869 157.806 266.926 157.856 267.036C157.88 267.146 157.848 267.267 157.762 267.4C156.902 268.65 156.14 269.82 155.475 270.913C154.811 272.006 154.379 272.698 154.178 272.991C154.443 273.19 154.649 273.524 154.796 273.992C154.943 274.46 155.008 274.938 154.991 275.428C154.972 275.971 154.846 276.457 154.613 276.884C154.381 277.312 154.006 277.516 153.49 277.498C153.136 277.486 152.898 277.301 152.774 276.942C152.65 276.611 152.595 276.228 152.61 275.794C152.624 275.413 152.677 275.047 152.771 274.697C152.865 274.346 152.942 274.104 153.001 273.97L153.309 273.328C152.984 273.289 152.496 273.218 151.847 273.113C151.197 273.009 150.521 272.89 149.818 272.757C149.412 272.688 149.091 272.527 148.855 272.274C148.592 272.02 148.467 271.689 148.482 271.281C148.496 270.873 148.649 270.389 148.941 269.827C149.232 269.266 149.717 268.63 150.395 267.919C150.735 267.549 151.147 267.06 151.631 266.451C152.115 265.842 152.571 265.246 153 264.662C153.427 264.105 153.742 263.667 153.944 263.348C154.317 262.789 154.512 262.279 154.528 261.817C154.546 261.3 154.27 261.032 153.699 261.012C153.074 260.99 152.4 261.198 151.677 261.635C150.953 262.1 150.239 262.674 149.534 263.357C148.83 264.04 148.208 264.712 147.668 265.374C147.099 266.061 146.686 266.605 146.427 267.004C146.311 267.191 146.158 267.28 145.968 267.274C145.832 267.269 145.767 267.199 145.771 267.063C145.776 266.927 145.807 266.819 145.864 266.739C146.15 266.341 146.62 265.745 147.274 264.952C147.901 264.157 148.65 263.353 149.522 262.54C150.393 261.754 151.353 261.148 152.403 260.722C152.734 260.597 153.063 260.514 153.391 260.471C153.72 260.401 153.994 260.369 154.211 260.377Z" fill="white"/>
<path d="M137.671 258.798C138.411 258.982 138.909 259.4 139.168 260.053C139.419 260.732 139.434 261.52 139.211 262.418C138.968 263.394 138.423 264.464 137.574 265.626C137.106 266.267 136.49 266.885 135.726 267.48C134.955 268.101 134.108 268.634 133.186 269.077C132.256 269.547 131.307 269.872 130.337 270.051C129.335 270.251 128.372 270.236 127.448 270.007C126.735 269.83 126.292 269.524 126.12 269.089C125.948 268.653 125.927 268.172 126.058 267.644C126.183 267.142 126.39 266.647 126.679 266.159L123.626 268.974C123.409 269.06 122.983 269.024 122.35 268.867C121.874 268.749 121.439 268.585 121.043 268.374C120.62 268.157 120.527 267.966 120.765 267.801C121.041 267.589 121.513 267.272 122.178 266.849C122.811 266.445 123.522 265.949 124.313 265.361C125.077 264.766 125.825 264.125 126.556 263.438C126.932 263.054 127.492 262.493 128.236 261.753C128.954 261.006 129.556 260.273 130.043 259.553C130.32 259.117 130.494 258.754 130.566 258.464C130.704 257.909 130.535 257.573 130.06 257.455C129.796 257.389 129.416 257.393 128.922 257.467C128.42 257.566 127.916 257.736 127.408 257.974C126.393 258.45 125.451 259.085 124.581 259.878C123.705 260.698 122.925 261.415 122.24 262.029C122.207 262.049 122.174 262.069 122.141 262.089C122.081 262.102 121.999 262.096 121.893 262.07C121.788 262.043 121.722 261.971 121.695 261.852C121.662 261.76 121.715 261.661 121.853 261.555C122.867 260.63 123.852 259.767 124.808 258.968C125.756 258.194 126.672 257.609 127.556 257.212C128.439 256.814 129.316 256.724 130.187 256.94C130.874 257.111 131.379 257.446 131.703 257.947C131.994 258.468 132.051 259.085 131.874 259.797C131.796 260.114 131.687 260.437 131.549 260.768C131.385 261.091 131.214 261.385 131.036 261.649C131.596 261.2 132.275 260.724 133.072 260.221C133.843 259.712 134.631 259.305 135.435 259C136.24 258.695 136.985 258.628 137.671 258.798ZM137.128 259.462C136.6 259.331 135.993 259.405 135.308 259.683C134.596 259.955 133.854 260.345 133.083 260.854C132.306 261.39 131.571 261.978 130.879 262.619C130.3 263.148 129.723 263.719 129.15 264.334C128.551 264.942 128.034 265.556 127.6 266.177C127.139 266.791 126.84 267.375 126.702 267.93C126.492 268.775 126.691 269.272 127.298 269.423C127.721 269.528 128.255 269.464 128.901 269.232C129.547 269.001 130.233 268.666 130.958 268.23C131.656 267.787 132.342 267.284 133.013 266.722C133.653 266.18 134.196 265.629 134.644 265.067C134.762 264.928 135.055 264.595 135.523 264.066C135.964 263.531 136.418 262.943 136.885 262.303C137.326 261.655 137.612 261.068 137.743 260.54C137.888 259.959 137.683 259.6 137.128 259.462Z" fill="white"/>
<path d="M100.397 243.06C101.096 243.481 101.492 243.957 101.585 244.489C101.664 245.044 101.556 245.566 101.262 246.056C100.996 246.499 100.662 246.869 100.26 247.167C99.1821 248.011 98.1063 248.665 97.033 249.131C95.9364 249.582 94.7535 250.125 93.4841 250.758C92.7467 251.14 92.287 251.482 92.1048 251.785C91.9366 252.065 91.9924 252.289 92.2721 252.457C92.6451 252.682 93.3285 252.759 94.3221 252.69C95.3017 252.644 96.4308 252.403 97.7093 251.965C98.5866 251.667 99.5735 251.293 100.67 250.841C101.743 250.376 102.779 249.919 103.778 249.472C104.777 249.025 105.593 248.644 106.228 248.327C106.863 248.01 107.18 247.852 107.18 247.852C107.348 247.889 107.59 247.988 107.907 248.146C108.239 248.282 108.556 248.441 108.859 248.623C109.045 248.735 109.213 248.852 109.362 248.973C109.502 249.057 109.623 249.146 109.726 249.24C109.282 249.449 108.669 249.731 107.885 250.085C107.078 250.424 106.219 250.797 105.309 251.202C104.362 251.616 103.452 252.021 102.579 252.417C101.692 252.836 100.92 253.197 100.262 253.5C99.604 253.802 99.1607 254.012 98.932 254.128C98.106 254.552 97.5598 254.985 97.2936 255.428C97.1114 255.731 97.1485 255.96 97.4049 256.114C97.6147 256.24 98.0322 256.285 98.6573 256.248C99.2684 256.235 100.157 256.103 101.324 255.852C102.093 255.68 102.887 255.443 103.703 255.14C104.52 254.837 105.313 254.521 106.083 254.19C107.254 253.72 108.346 253.25 109.359 252.78C110.358 252.333 111.167 251.963 111.788 251.669C112.385 251.362 112.703 251.204 112.74 251.194C112.968 251.237 113.218 251.323 113.488 251.454C113.735 251.571 113.976 251.699 114.209 251.839C114.465 251.993 114.703 252.152 114.922 252.316C115.118 252.465 115.244 252.573 115.3 252.638C114.796 252.843 114.121 253.12 113.277 253.469C112.432 253.818 111.529 254.211 110.568 254.649C109.569 255.096 108.601 255.545 107.663 255.997C106.702 256.435 105.852 256.844 105.115 257.226C104.377 257.608 103.829 257.913 103.47 258.142C102.812 258.603 102.412 258.95 102.272 259.183C102.118 259.44 102.146 259.631 102.356 259.757C102.472 259.827 102.72 259.865 103.097 259.87C103.527 259.842 104.091 259.721 104.791 259.507C105.454 259.302 106.163 259.047 106.919 258.739C107.675 258.432 108.382 258.127 109.04 257.824C109.698 257.522 110.211 257.275 110.58 257.084C110.64 257.089 110.706 257.112 110.776 257.154C110.869 257.21 110.918 257.287 110.922 257.385C110.927 257.483 110.89 257.572 110.81 257.651C110.493 257.809 109.993 258.033 109.312 258.322C108.617 258.633 107.866 258.959 107.058 259.299C106.228 259.625 105.455 259.907 104.741 260.144C104.014 260.404 103.465 260.551 103.097 260.583C102.397 260.639 101.826 260.533 101.383 260.267C100.986 260.029 100.756 259.7 100.691 259.28C100.612 258.883 100.706 258.463 100.972 258.02C101.336 257.414 101.901 256.818 102.667 256.231C102.452 256.324 102.053 256.433 101.47 256.559C100.873 256.707 100.282 256.844 99.6993 256.97C99.0927 257.081 98.7102 257.137 98.5516 257.137C98.0291 257.108 97.5651 257.036 97.1593 256.919C96.7303 256.788 96.3642 256.631 96.0612 256.449C95.4784 256.099 95.1545 255.713 95.0896 255.294C95.0338 255.07 95.097 254.806 95.2792 254.503C95.4613 254.2 95.7345 253.904 96.0986 253.615C96.4627 253.326 96.8361 253.075 97.2188 252.86C96.5329 253.051 95.8377 253.204 95.1332 253.32C94.4288 253.436 93.729 253.492 93.0339 253.487C92.3995 253.486 91.8608 253.432 91.4177 253.324C90.9374 253.226 90.5456 253.086 90.2426 252.903C89.3334 252.357 89.1591 251.617 89.7197 250.685C89.9299 250.335 90.2684 249.983 90.7352 249.629C91.1787 249.261 91.7527 248.94 92.4573 248.665C93.2506 248.349 94.2702 247.946 95.5161 247.457C96.7387 246.954 97.8004 246.403 98.7012 245.802C99.3313 245.387 99.7515 245.005 99.9617 244.655C100.242 244.189 100.161 243.823 99.7177 243.556C99.368 243.346 98.7967 243.241 98.0037 243.24C97.0521 243.239 95.9277 243.42 94.6306 243.783C93.3102 244.132 91.9173 244.707 90.4518 245.508C90.3399 245.535 90.2256 245.514 90.109 245.444C89.8992 245.318 89.9367 245.15 90.2214 244.941C91.5188 244.261 92.8067 243.702 94.0853 243.265C95.3405 242.813 96.5139 242.551 97.6055 242.477C98.6971 242.403 99.6276 242.598 100.397 243.06Z" fill="white"/>
<path d="M78.4293 217.754C79.4954 219.061 80.2835 220.629 80.7939 222.459C81.3042 224.29 81.7013 226.283 81.9854 228.438C82.4346 228.773 82.8523 229.135 83.2383 229.522C83.6244 229.909 83.9635 230.282 84.2558 230.64C84.8748 231.399 85.3322 232.131 85.6278 232.838C85.9062 233.524 85.8452 234.03 85.4448 234.356C85.1287 234.614 84.7401 234.633 84.2792 234.412C83.8183 234.191 83.3987 233.849 83.0204 233.385C82.5218 232.774 82.0836 232.044 81.7059 231.193C81.311 230.322 80.9305 229.404 80.5644 228.439C79.662 227.806 78.6838 227.252 77.63 226.778C75.7403 225.968 73.7547 225.341 71.6731 224.898C69.5705 224.472 67.4637 224.278 65.3527 224.315C63.2207 224.369 61.1868 224.695 59.2511 225.291C57.3155 225.887 55.5783 226.813 54.0398 228.068C53.0071 228.911 52.311 229.865 51.9517 230.93C51.554 231.992 51.7093 233.129 52.4176 234.341C52.6639 234.772 52.9418 235.177 53.2513 235.557C54.2314 236.758 55.4463 237.645 56.8962 238.217C58.3288 238.769 59.8605 239.011 61.4911 238.944C63.1046 238.857 64.6811 238.466 66.2208 237.771C66.7704 237.498 67.2138 237.224 67.5511 236.949C68.3309 236.313 68.7912 235.586 68.9321 234.769C69.0729 233.952 68.8768 233.217 68.3438 232.564C67.7248 231.805 66.96 231.341 66.0492 231.171C65.1174 231.019 64.2619 231.067 63.4826 231.317C63.0938 231.529 62.8135 231.529 62.6415 231.319C62.5212 231.171 62.5558 231.02 62.7455 230.865C62.7877 230.831 62.8403 230.788 62.9036 230.736C62.9668 230.685 63.0472 230.654 63.1448 230.645C63.8476 230.387 64.6199 230.301 65.4618 230.387C66.2655 230.468 67.0537 230.703 67.8263 231.09C68.5606 231.474 69.1857 231.982 69.7016 232.615C70.0111 232.994 70.2573 233.425 70.4404 233.907C70.6062 234.369 70.6811 234.869 70.665 235.409C70.6279 235.966 70.4587 236.49 70.1576 236.982C69.8392 237.452 69.4482 237.876 68.9846 238.254C68.2469 238.856 67.3764 239.338 66.3731 239.7C65.3487 240.08 64.3312 240.296 63.3206 240.348C61.8603 240.451 60.4251 240.305 59.0152 239.911C57.6053 239.517 56.3019 238.93 55.105 238.152C53.887 237.39 52.8653 236.504 52.04 235.492C51.3178 234.607 50.7947 233.664 50.4708 232.665C50.1469 231.666 50.0756 230.653 50.2569 229.627C50.3978 228.811 50.7156 228.06 51.2103 227.375C51.6667 226.687 52.2322 226.068 52.9066 225.518C54.1501 224.503 55.6276 223.754 57.3392 223.27C59.0337 222.766 60.8579 222.506 62.8119 222.491C64.7659 222.477 66.7664 222.67 68.8136 223.071C70.8436 223.451 72.837 224.001 74.7938 224.722C76.7123 225.438 78.5005 226.296 80.1584 227.296C79.6991 225.915 79.2074 224.473 78.6832 222.97C78.1418 221.446 77.3983 220.104 76.4526 218.945C75.9883 218.376 75.4523 217.848 74.8444 217.361C74.2193 216.853 73.5959 216.519 72.9741 216.36C72.3524 216.2 71.7991 216.318 71.3144 216.713C71.209 216.799 71.1227 216.887 71.0556 216.977C70.9674 217.084 70.8812 217.172 70.7969 217.241C70.7126 217.31 70.6197 217.368 70.5182 217.415C70.3956 217.48 70.2741 217.439 70.1538 217.292C70.0506 217.165 70.07 216.974 70.212 216.717C70.3368 216.44 70.5467 216.181 70.8418 215.94C71.5794 215.339 72.4286 215.067 73.3892 215.126C74.3327 215.164 75.2528 215.431 76.1497 215.928C77.0676 216.408 77.8275 217.016 78.4293 217.754ZM84.8117 233.451C84.9381 233.348 84.8715 233.051 84.612 232.561C84.3524 232.071 84.001 231.532 83.5578 230.946C83.0764 230.356 82.5919 229.891 82.1044 229.552C82.2358 229.971 82.3692 230.371 82.5046 230.752C82.6227 231.112 82.7791 231.476 82.9738 231.844C83.2639 232.415 83.5848 232.872 83.9364 233.217C84.2881 233.562 84.5798 233.64 84.8117 233.451Z" fill="white"/>
<path d="M62.902 193.036C63.2752 194.115 63.3695 195.263 63.1851 196.477C62.9918 197.667 62.4836 198.778 61.6606 199.81C60.803 200.826 59.5901 201.605 58.0219 202.147C57.045 202.485 55.912 202.704 54.6228 202.804C53.3336 202.904 51.8923 202.856 50.2987 202.658C48.8515 202.468 47.2769 202.033 45.5748 201.355C43.8471 200.686 42.1085 199.819 40.3592 198.755C38.5842 197.699 36.9194 196.505 35.365 195.171C33.7848 193.847 32.4015 192.426 31.2149 190.908C30.0283 189.389 29.164 187.846 28.622 186.278C28.4265 185.713 28.274 185.147 28.1645 184.58C27.9643 183.584 27.9736 182.862 28.1922 182.412C28.3852 181.971 28.6231 181.702 28.9059 181.604C29.1373 181.524 29.3523 181.522 29.551 181.597C29.7239 181.681 29.8326 181.788 29.8771 181.916C29.9481 182.122 29.8596 182.282 29.6114 182.396C29.38 182.476 29.2174 182.547 29.1234 182.608C28.9692 182.662 28.854 182.745 28.7778 182.857C28.6591 183.013 28.6194 183.315 28.6587 183.762C28.6981 184.209 28.8777 184.895 29.1975 185.82C29.8195 187.62 30.7451 189.257 31.9742 190.731C33.2033 192.206 34.6026 193.507 36.1719 194.633C37.7067 195.743 39.3172 196.698 41.0034 197.496C42.6638 198.304 44.2666 198.944 45.8115 199.417C47.3219 199.874 48.6544 200.19 49.809 200.367C51.5063 200.615 53.0425 200.688 54.4177 200.587C55.7929 200.486 56.9947 200.257 58.023 199.902C59.8225 199.28 61.081 198.341 61.7983 197.086C62.5067 195.805 62.6033 194.419 62.0879 192.928C61.7947 192.08 61.2954 191.26 60.5899 190.468C59.9012 189.641 59.0716 188.906 58.1011 188.263C57.1306 187.62 56.1012 187.098 55.013 186.697C53.899 186.305 52.7914 186.098 51.6901 186.075C50.6145 186.044 49.5882 186.198 48.6113 186.535C47.583 186.891 46.7899 187.51 46.2319 188.394C45.665 189.251 45.657 190.477 46.2079 192.071C46.5989 193.202 47.1985 194.146 48.0068 194.903C48.7895 195.668 49.6349 196.283 50.5432 196.746C51.4427 197.183 52.2808 197.527 53.0577 197.776C53.8258 198 54.3779 198.14 54.714 198.197C54.9117 198.186 55.0842 198.227 55.2314 198.32C55.3698 198.387 55.4523 198.459 55.479 198.537C55.5412 198.717 55.4823 198.838 55.3023 198.9C55.1995 198.935 55.023 198.924 54.773 198.867C54.0147 198.755 53.1563 198.519 52.1975 198.16C51.213 197.809 50.2444 197.338 49.2917 196.747C48.3043 196.138 47.4189 195.408 46.6353 194.557C45.8429 193.679 45.2556 192.688 44.8736 191.583C44.5004 190.503 44.4376 189.489 44.6852 188.54C44.8982 187.574 45.3405 186.73 46.0121 186.009C46.6837 185.288 47.5208 184.754 48.5234 184.407C49.2432 184.158 50.0504 184.038 50.9451 184.045C52.433 184.02 53.8337 184.284 55.1473 184.837C56.4352 185.399 57.5959 186.135 58.6296 187.044C59.6801 187.918 60.5639 188.894 61.2811 189.97C62.0152 191.011 62.5555 192.033 62.902 193.036Z" fill="white"/>
</g>
<defs>
<filter id="filter0_d_59_79" x="88" y="88" width="137" height="137" filterUnits="userSpaceOnUse" color-interpolation-filters="sRGB">
<feFlood flood-opacity="0" result="BackgroundImageFix"/>
<feColorMatrix in="SourceAlpha" type="matrix" values="0 0 0 0 0 0 0 0 0 0 0 0 0 0 0 0 0 0 127 0" result="hardAlpha"/>
<feOffset/>
<feGaussianBlur stdDeviation="2"/>
<feComposite in2="hardAlpha" operator="out"/>
<feColorMatrix type="matrix" values="0 0 0 0 0 0 0 0 0 0 0 0 0 0 0 0 0 0 0.69 0"/>
<feBlend mode="normal" in2="BackgroundImageFix" result="effect1_dropShadow_59_79"/>
<feBlend mode="normal" in="SourceGraphic" in2="effect1_dropShadow_59_79" result="shape"/>
</filter>
<filter id="filter1_d_59_79" x="69" y="69" width="176" height="176" filterUnits="userSpaceOnUse" color-interpolation-filters="sRGB">
<feFlood flood-opacity="0" result="BackgroundImageFix"/>
<feColorMatrix in="SourceAlpha" type="matrix" values="0 0 0 0 0 0 0 0 0 0 0 0 0 0 0 0 0 0 127 0" result="hardAlpha"/>
<feOffset/>
<feGaussianBlur stdDeviation="2"/>
<feComposite in2="hardAlpha" operator="out"/>
<feColorMatrix type="matrix" values="0 0 0 0 0 0 0 0 0 0 0 0 0 0 0 0 0 0 0.99 0"/>
<feBlend mode="normal" in2="BackgroundImageFix" result="effect1_dropShadow_59_79"/>
<feBlend mode="normal" in="SourceGraphic" in2="effect1_dropShadow_59_79" result="shape"/>
</filter>
<linearGradient id="paint0_linear_59_79" x1="156.5" y1="0" x2="156.5" y2="313" gradientUnits="userSpaceOnUse">
<stop/>
<stop offset="0.5" stop-color="#303030"/>
<stop offset="1"/>
</linearGradient>
<linearGradient id="paint1_linear_59_79" x1="157" y1="313" x2="159" y2="-2" gradientUnits="userSpaceOnUse">
<stop stop-color="#D4D4D4"/>
<stop offset="1" stop-color="#2C2C2C"/>
</linearGradient>
</defs>
</svg>
